<svg width="22" height="22" viewBox="0 0 22 22" fill="none" xmlns="http://www.w3.org/2000/svg">
<path d="M18.6954 1.28112H15.6291V0H6.3703V1.28107H3.304L1.73835 7.80095H0V12.2422H1.3307L2.81347 22H19.1858L20.6687 12.2422H21.9993V7.80099H20.261L18.6954 1.28112ZM7.65932 1.28902H14.34V2.56215H7.65932V1.28902ZM4.32013 2.5701H6.37034V3.85117H15.6291V2.5701H17.6793L18.9354 7.80095H3.06402L4.32013 2.5701ZM18.0779 20.711H3.92142L2.63451 12.2422H19.3648L18.0779 20.711ZM20.7103 10.9532H1.28902V9.09001H20.7103V10.9532Z" fill="#3A3A3A"/>
<path d="M11.6445 14.0244H10.3555V18.9296H11.6445V14.0244Z" fill="#3A3A3A"/>
<path d="M7.45309 14.0244H6.16406V18.9296H7.45309V14.0244Z" fill="#3A3A3A"/>
<path d="M15.8359 14.0244H14.5469V18.9296H15.8359V14.0244Z" fill="#3A3A3A"/>
</svg>
