<svg width="216" height="58" viewBox="0 0 216 58" fill="none" xmlns="http://www.w3.org/2000/svg">
<path d="M216.001 57.0777H207.054C208.59 55.7589 207.531 54.994 206.869 54.0972C205.043 51.5916 203.216 49.0859 201.31 46.4747C200.278 47.477 199.06 48.321 198.24 49.4287C198.213 49.4815 198.107 53.939 198.372 55.2578C198.504 55.8644 198.928 56.4974 199.484 57.0513L192.363 57.0249C193.025 56.4711 193.396 55.8644 193.528 55.205C193.687 54.3082 193.687 42.8349 193.607 38.0345C193.607 37.2168 193.687 36.3464 193.501 35.5024C193.316 34.5529 192.125 34.0254 192.125 34.0254H199.801C198.107 34.6584 198.293 36.4519 198.293 37.718C198.293 39.5643 198.293 41.4106 198.293 43.5997C201.443 40.7512 206.737 35.9508 207.372 35.3705C207.981 34.7903 206.181 34.0518 206.181 34.0518H215.207C214.625 34.5001 214.201 34.7903 213.831 35.1332C210.972 37.6916 208.113 40.2237 205.307 42.8085C205.201 42.914 204.751 43.336 204.751 43.336C204.751 43.336 205.122 43.8635 205.201 43.9954C207.954 47.7671 210.707 51.4861 213.566 55.205C214.201 56.049 214.863 56.471 216.001 57.0777Z" fill="#373737"/>
<path d="M94.6316 45.1293C97.1728 46.5272 98.0199 48.7955 97.6493 51.5386C97.1993 54.8092 95.3728 56.9192 92.0905 57.0511C86.6905 57.0775 80.814 57.0775 75.1758 57.0775C75.9699 56.5236 76.367 55.6268 76.5258 54.5454C76.6846 53.5432 76.764 43.4149 76.6846 39.1948C76.6581 37.5595 77.0287 35.5022 75.3611 34.0252C75.3611 34.0516 86.1081 33.9988 90.9522 34.0252C93.1758 34.0516 95.2405 34.7901 96.2728 36.821C97.3846 39.0102 97.464 41.3049 96.0875 43.4677C95.7169 44.0479 95.161 44.5227 94.6316 45.1293ZM81.3434 53.4377C84.2552 53.4377 87.0346 53.4904 89.814 53.4113C91.9581 53.3585 93.0699 52.1452 93.0699 50.2198C93.0434 48.2944 92.011 47.2657 89.9199 47.0547C89.5758 47.0284 89.2052 47.002 88.8611 47.002C86.3728 47.002 83.8846 47.002 81.3699 47.002C81.3434 49.2439 81.3434 51.3012 81.3434 53.4377ZM81.3699 43.2567C83.3552 43.2567 85.2611 43.283 87.1934 43.2567C88.3846 43.2303 89.5758 43.1775 90.7405 42.9929C92.1964 42.7819 92.4346 41.6477 92.4611 40.4345C92.4875 39.2476 92.0905 38.0343 90.7934 37.9815C87.6699 37.8233 84.5199 37.9288 81.3964 37.9288C81.3699 39.6168 81.3699 41.3576 81.3699 43.2567Z" fill="#373737"/>
<path d="M3.17885 21.7335C4.18473 14.0318 6.32885 6.72578 11.0935 0.369257C10.7759 1.26603 10.5906 2.21555 10.3259 3.1387C10.1671 3.71896 9.95532 4.27285 9.74356 4.93224C10.67 4.93224 11.173 4.98499 11.9936 4.90586C12.1259 4.90586 12.6818 4.87949 12.6818 4.87949C12.6818 4.87949 12.9465 4.2201 13.0259 4.03547C13.5288 2.69031 13.9524 1.31878 14.72 0C14.4288 1.63529 14.1377 3.2442 13.8465 4.90586L18.3994 6.04002V0.633014C19.5906 4.74761 19.2729 8.94134 19.1671 13.5307C20.1729 12.0537 23.5612 8.57208 25.8906 6.43565C27.3465 5.0905 28.2994 4.5366 28.2994 4.5366C28.2994 4.5366 23.4288 9.36334 18.4788 16.3793C10.4053 27.5889 6.1965 39.9855 7.07002 53.8854C7.14944 55.2569 7.36121 56.6285 7.44062 58C2.88768 46.2892 1.53768 34.1828 3.17885 21.7335ZM5.00532 23.9227H9.50532C9.63767 22.1292 9.77002 20.4939 9.90237 18.5948C8.60532 18.6476 7.41414 18.6739 6.27591 18.7794C6.17003 18.7794 5.79944 18.8322 5.79944 18.8322C5.79944 18.8322 5.69356 19.307 5.66709 19.4388C5.40238 20.9159 5.21709 22.3929 5.00532 23.9227ZM9.32002 25.2942C8.04943 25.2942 6.88473 25.2415 5.69355 25.3206C5.5612 25.3206 5.00532 25.3734 5.00532 25.3734C5.00532 25.3734 4.89944 25.7954 4.89944 25.9272C4.76708 27.2988 4.71415 28.6967 4.66121 30.0418H9.32002V25.2942ZM12.7082 10.7876C14.5347 11.2888 16.1759 11.7372 17.8965 12.2119C17.9759 11.236 18.1876 8.5457 18.1876 8.5457C18.1876 8.5457 17.923 8.41382 17.6847 8.33469C16.3612 7.75443 14.9847 7.22692 13.4494 6.62028C13.1583 8.20282 12.92 9.49522 12.7082 10.7876ZM18.0553 15.0869L12.523 12.9504C12.4171 13.9791 12.3112 14.7176 12.2583 15.4297C12.1788 16.4056 12.1259 17.4343 12.1259 17.4343C12.1259 17.4343 13.0259 17.7244 14.0053 18.0146C14.5082 18.1464 14.9847 18.3574 15.5935 18.5948L18.0553 15.0869ZM10.8288 12.8449C9.69061 12.8449 8.73768 12.8186 7.75827 12.8713C7.46709 12.8977 7.07002 12.9241 7.07002 12.9241C7.07002 12.9241 6.24944 16.2474 5.85239 17.8036C7.17591 17.6453 9.95532 17.3552 9.95532 17.3552C9.95532 17.3552 10.0877 16.9595 10.1406 16.6958C10.4318 15.4825 10.5906 14.2692 10.8288 12.8449ZM7.46708 11.3679C8.65826 11.2096 9.69061 11.1305 10.6965 10.9459C10.8024 10.9195 11.2259 10.8668 11.2259 10.8668C11.2259 10.8668 11.3053 10.5766 11.3318 10.4711C11.6759 9.28422 11.9671 7.96544 12.3112 6.59391C11.3053 6.54116 10.5906 6.56753 9.77002 6.59391C9.63767 6.59391 9.08179 6.67303 9.08179 6.67303C9.08179 6.67303 8.92296 6.98954 8.87002 7.12142C8.36708 8.49295 7.94355 9.91723 7.46708 11.3679ZM12.0465 24.1601C12.8141 22.9995 13.3965 22.1028 13.9788 21.206C14.3759 20.5994 14.2171 20.1246 13.6082 19.8081C13.1583 19.5707 12.6553 19.4125 12.0465 19.1751V24.1601ZM4.82003 37.5853C5.00532 39.5107 5.16414 41.2779 5.34944 43.0714C5.37591 43.0714 5.37591 43.0714 5.40238 43.0714C5.85238 41.2515 6.30238 39.4843 6.77885 37.5853H4.82003ZM8.76414 31.3606C7.46709 31.3606 6.38179 31.3079 5.29649 31.387C5.16414 31.387 4.60827 31.4661 4.60827 31.4661C4.60827 31.4661 4.5818 31.9673 4.5818 32.0991C4.50239 33.4443 4.55532 34.7895 4.55532 36.5566L7.17591 36.0555C7.17591 36.0291 7.17591 36.0555 7.17591 36.0555C7.17591 36.0555 8.23473 33.0223 8.76414 31.3606Z" fill="#137513"/>
<path d="M100.641 34.0247C106.305 34.0247 111.52 33.9192 116.708 34.0774C119.223 34.1566 121.235 35.3962 122.002 37.9283C122.823 40.5922 122.929 43.3089 120.785 45.4717C119.858 46.4212 118.429 46.896 117.079 47.6609C119.302 50.6413 120.441 54.4922 123.802 57.1034C121.155 57.1034 118.667 57.1034 115.967 57.1034C117.344 55.9692 116.47 55.0724 115.914 54.1493C114.802 52.303 113.691 50.4567 112.632 48.584C112.235 47.8719 111.758 47.6081 110.964 47.6609C109.535 47.7136 108.079 47.6873 106.517 47.6873C106.517 50.3512 106.464 52.8833 106.57 55.4153C106.597 55.9692 106.994 56.7077 107.708 57.1297C105.511 57.1297 102.997 57.1297 100.694 57.1297C101.382 56.6813 101.805 56.0483 101.805 55.5999C101.805 55.1516 101.885 52.6195 101.911 51.2743C102.017 46.9224 101.964 42.5704 101.938 38.2184C101.964 36.7941 102.414 35.2907 100.641 34.0247ZM106.57 43.8364C109.535 43.8364 112.341 43.9419 115.146 43.81C117.132 43.7309 118.005 42.544 117.926 40.5658C117.846 38.7195 116.841 37.7964 114.829 37.7436C114.246 37.7173 113.691 37.6909 113.108 37.6909C110.938 37.6909 108.741 37.6909 106.544 37.6909C106.57 39.8273 106.57 41.7791 106.57 43.8364Z" fill="#373737"/>
<path d="M137.411 53.332C137.411 48.3206 137.438 43.3093 137.411 38.3243C137.411 36.9 137.623 35.3966 136.167 34.3679C135.929 34.2097 135.426 34.025 135.426 34.025C135.426 34.025 137.385 34.025 137.438 34.025C141.964 34.025 145.776 33.8668 150.302 34.0514C154.749 34.236 157.688 36.9 158.799 41.5421C159.54 44.628 159.514 47.7404 158.455 50.7736C157.211 54.3607 154.802 56.6026 150.938 57.0773C150.329 57.1565 149.455 57.1037 148.846 57.1037C144.426 57.1037 140.243 57.1037 135.823 57.1037C137.57 56.4443 137.411 54.7563 137.411 53.332ZM142.017 53.4375C144.373 53.4375 146.57 53.4903 148.767 53.4111C151.361 53.332 153.188 51.9868 154.008 49.5339C154.855 46.9227 155.173 44.3643 154.299 41.7531C153.717 40.0123 152.711 38.5353 150.382 37.8759C148.052 37.2165 144.902 37.5066 142.017 37.533V53.4375Z" fill="#373737"/>
<path d="M189.845 35.3971C189.103 37.0588 187.859 39.7227 186.959 41.6745C187.012 41.2262 186.668 40.6986 186.35 40.4085C184.259 38.404 179.574 36.8742 176.503 38.193C175.392 38.6677 174.492 39.4062 174.65 40.7778C174.809 42.0174 175.789 42.3339 176.847 42.4658C178.992 42.7559 181.136 42.9142 183.253 43.3098C186.006 43.7846 188.283 44.9979 189.13 47.9256C189.871 50.4576 189.447 52.8314 187.674 54.836C186.456 56.2075 184.842 56.8933 183.068 57.2098C179.15 57.9483 175.445 57.4208 171.95 55.5217C171.448 55.258 170.574 54.8887 170.15 54.9679C169.727 55.047 169.383 55.5217 169.383 55.5217C169.383 55.5217 171.183 50.8005 171.95 48.7168C171.977 48.7168 171.977 48.7168 171.977 48.7168C172.295 51.4072 174.227 52.1193 176.186 52.8051C178.039 53.4645 179.971 53.781 181.877 53.2007C182.989 52.8578 184.18 52.1457 184.789 51.2225C185.45 50.2466 184.868 48.8751 183.703 48.6377C181.4 48.1629 179.071 47.9519 176.742 47.6618C171.792 47.0552 169.33 43.5472 170.574 38.826C171.368 35.8455 174.359 33.8146 178.065 33.6563C181.003 33.5245 183.73 34.052 186.377 35.3971C186.906 35.6609 187.489 35.8983 188.177 36.0565C188.839 36.162 189.659 35.4763 189.845 35.3971Z" fill="#373737"/>
<path d="M33.513 34.0518C32.5865 34.6056 32.3748 35.1068 32.3218 36.1618C32.2689 37.2432 32.4012 41.9117 32.4012 43.1514H44.26C44.26 40.6457 44.26 36.2937 44.2071 35.5815C44.1806 34.8694 43.5453 34.3683 42.9894 34.0518H50.3482C48.9453 34.5265 48.9188 37.3751 48.8924 39.0368C48.813 43.7316 48.8659 48.4265 48.8659 53.1213C48.8659 54.4665 48.4688 55.9172 50.1365 57.0777H43.2277C43.8894 56.6557 44.3394 55.6798 44.3659 54.8885C44.3924 54.0972 44.4718 50.0881 44.4189 47.0549H32.4542C32.4542 49.8771 32.4542 54.0972 32.4806 55.205C32.5336 56.3128 32.9306 56.6557 33.6718 57.0777H26.6836C27.213 56.7612 27.6895 56.1809 27.7953 55.0468C27.9012 52.9367 27.8218 50.1936 27.8218 50.1936L27.8483 37.7971C27.8483 37.7971 28.113 34.7375 26.6836 34.0254C26.6836 34.1045 33.513 34.0518 33.513 34.0518Z" fill="#373737"/>
<path d="M66.4406 57.0777H59.1083C59.9818 56.4447 60.3259 55.7325 60.4318 54.9676C60.5377 54.1236 60.6171 50.1673 60.4583 49.1123C60.1671 47.1077 59.32 45.235 57.97 43.4679C56.3024 41.2523 54.9789 38.7994 53.4171 36.5047C52.8347 35.6607 52.1465 34.843 51.1406 34.0254C52.6494 34.0254 59.9553 34.0254 59.9553 34.0254C59.9553 34.0254 59.1612 34.4738 59.0818 34.5793C58.2083 35.5288 58.7112 36.4519 59.373 37.4278C60.5112 39.195 61.57 40.9886 62.7877 42.9931C64.27 40.6193 65.6994 38.4565 66.9171 36.1882C67.42 35.0804 66.2024 34.2628 65.5671 34.0518C68.0553 34.0518 74.7259 34.0518 74.7259 34.0518C74.7259 34.0518 74.2494 34.421 74.2229 34.421C73.3759 35.0013 72.7141 35.6871 72.1318 36.452C70.8876 38.0609 66.9965 44.6284 65.9906 46.0527C65.2759 47.0813 64.9583 48.11 65.0112 49.376C65.0906 50.8794 64.9583 52.3828 65.0641 53.8599C65.0906 54.8885 65.3553 56.3919 66.4406 57.0777Z" fill="#373737"/>
<path d="M125.469 57.1021C126.475 56.5482 126.898 55.7833 126.925 54.6492C126.978 49.6378 126.978 43.5978 126.925 38.5864C126.925 37.083 127.242 35.4477 125.601 34.0762C128.01 34.0762 130.498 34.0762 132.881 34.0762C131.504 34.8411 131.557 37.0302 131.531 38.771C131.451 43.4131 131.504 48.6091 131.531 53.2512C131.531 54.57 131.583 55.9679 133.145 57.1021C130.683 57.1021 127.269 57.1021 125.469 57.1021Z" fill="#373737"/>
<path d="M28.1385 19.1758C26.5768 22.9212 24.7768 25.9016 20.9385 29.3568C15.0356 34.6847 11.8591 41.2786 9.87385 48.6901C9.60914 49.6924 9.3709 50.6947 9.1062 51.697C9.07973 51.8552 8.41797 55.3632 8.41797 55.3632C8.41797 55.3632 8.52385 51.7497 8.55032 51.6178C8.6562 50.4837 8.73561 49.3495 8.89444 48.2154C9.66208 42.993 10.8268 37.8761 14.1091 33.6033C16.4385 30.5965 19.0856 27.827 21.6532 25.0048C25.0679 21.2859 27.6885 17.2768 28.9591 12.3445C29.1709 11.5796 29.2238 9.8916 29.2238 9.8916C29.2238 9.8916 30.5209 13.4523 28.1385 19.1758Z" fill="#137513"/>
<path d="M10.4297 52.7782C10.9856 43.6786 16.3326 38.087 20.7267 34.79C15.3797 40.6982 12.7062 44.2589 10.4297 52.7782Z" fill="#137513"/>
<path d="M5.61176 57.6043C0.555885 52.3555 0.0264705 47.7662 0 43.0713C1.00588 47.8189 1.19118 50.9312 5.61176 57.6043Z" fill="#137513"/>
<path d="M12.043 24.1598C12.043 22.3135 12.043 20.8365 12.043 19.1748C12.6783 19.4122 13.1547 19.5968 13.6047 19.8078C13.9224 19.9661 14.4518 20.2298 14.4518 20.2298C14.4518 20.2298 14.1871 20.8892 13.9753 21.1794C13.393 22.1025 12.8106 22.9993 12.043 24.1598Z" fill="#F3F8F3"/>
<path d="M4.81641 37.5859C5.53111 37.5859 6.087 37.5859 6.77523 37.5859C6.37817 39.1421 6.03405 40.5927 5.66347 42.0434C5.53111 42.0434 5.39876 42.0698 5.26641 42.0698C5.10759 40.6191 4.97523 39.1421 4.81641 37.5859Z" fill="#F3F8F3"/>
</svg>
